<svg width="1098" height="959" xmlns="http://www.w3.org/2000/svg">
 <!-- Created with Method Draw - http://github.com/duopixel/Method-Draw/ -->
 <g>
  <title>background</title>
  <rect fill="#fff" id="canvas_background" height="961" width="1100" y="-1" x="-1"/>
  <g display="none" overflow="visible" y="0" x="0" height="100%" width="100%" id="canvasGrid">
   <rect fill="url(#gridpattern)" stroke-width="0" y="0" x="0" height="100%" width="100%"/>
  </g>
 </g>
 <g>
  <title>Layer 1</title>
  <path d="m52.5,135.953125c0,3 1,20 1,40c0,18 0.57415,69.75235 9,82c10.450981,15.191345 28.787148,16.95993 49,10c37.213043,-12.813629 57.800217,-33.496567 79,-80c5.246918,-11.509552 0.086197,-31.361465 -5,-31c-17.982407,1.277969 -35.883804,22.034088 -51,88c-11.248238,49.086426 -3.820557,116.896118 17,129c58.328323,33.908783 131.416443,21.282318 222,-26c40.088989,-20.925415 66.380035,-70.010254 62,-79c-12.792358,-26.255585 -59.747742,-32.002869 -107,7c-43.496796,35.903046 -101.550339,181.438293 -94,228c13.766678,84.896851 71.076996,112.567627 176,91c66.952179,-13.762451 159.315918,-82.388123 169,-127c11.275024,-51.941071 -26.765381,-78.61618 -51,-81c-43.208069,-4.250122 -79.450775,23.817444 -84,85c-5.279297,71.000916 23.20813,89.210083 48,93c83.51062,12.766296 142.736633,-23.275208 174,-82c12.081787,-22.694275 -2.224365,-55.268616 -22,-59c-32.561523,-6.143921 -47.362549,9.655365 -45,38c1.234802,14.814697 29,28 49,28l50,-11" id="svg_1" stroke-width="1.5" stroke="#000" fill="none"/>
  <path d="m111.5,516.953125c-4,5 -13.78653,11.924744 -30,46c-17.25592,36.266174 -30.860367,81.882996 -18,170c6.270073,42.961426 44.167397,83.788208 75,80c97.934738,-12.032715 151.528351,-57.955811 179,-118c13.723206,-29.994568 -0.09198,-66.201538 -10,-69c-22.154968,-6.257568 -34.328949,3.775024 -41,45c-5.433594,33.577881 12.233795,85.388245 26,91c50.964478,20.775513 117.862732,-3.295166 185,-75c27.313354,-29.17157 39.822693,-94.721619 28,-124c-8.931488,-22.11853 -54.670654,-38.285767 -61,-33c-26.10791,21.803162 -32.784454,75.125 6,140c21.4104,35.813354 98.186646,65.343506 158,53c128.610168,-26.540894 154.75946,-60.54303 166,-114c5.144348,-24.464966 -8.919495,-61.410461 -17,-64c-5.792603,-1.856323 -15.657715,7.678101 -15,46c0.31311,18.245605 16,36 27,38l41,-13l15,-10l26,-30" id="svg_2" stroke-width="1.5" stroke="#000" fill="#ffff56"/>
  <path d="m362.5,217.953125c0,0 -3.380554,-1.424042 -8,9c-16.452332,37.125732 -6.60675,58.641357 21,67c14.356384,4.346771 53.584534,-12.829468 70,-35c25.281311,-34.144623 32.411865,-56.572052 14,-86c-8.699219,-13.904083 -41.89032,-17.538208 -48,-12c-11.014374,9.984161 -7.130432,37.607315 37,55c38.55069,15.193604 133.358032,0.769897 174,-16c21.914246,-9.042374 31.338867,-21.755035 29,-25c-3.698059,-5.130753 -18.976318,-3.942139 -28,17c-5.204834,12.079315 2.120483,58.760468 22,71c47.959351,29.527924 111.104248,32.541687 186,-8c9.348389,-5.060364 9.565857,-15.809952 7,-17c-10.923889,-5.066483 -20,4 -26,24l0,9l10,17" id="svg_3" stroke-width="1.5" stroke="#000" fill="none"/>
  <rect id="svg_4" height="362" width="399" y="153.953125" x="112.5" stroke-width="1.5" stroke="#000" fill="#ffff56"/>
  <rect id="svg_5" height="109" width="313" y="279.953125" x="320.5" stroke-width="1.5" stroke="#000" fill="#ffff56"/>
  <ellipse ry="245.5" rx="196.5" id="svg_6" cy="572.453125" cx="772" stroke-width="1.5" stroke="#000" fill="#ffff56"/>
  <ellipse ry="0.5" id="svg_7" cy="681.453125" cx="753.5" stroke-width="1.5" stroke="#000" fill="#ff0000"/>
  <ellipse ry="0.5" id="svg_8" cy="535.453125" cx="879.5" stroke-width="1.5" stroke="#000" fill="#ff0000"/>
 </g>
</svg>